<?xml version="1.0" standalone="no"?>
<!DOCTYPE svg PUBLIC "-//W3C//DTD SVG 20010904//EN"
 "http://www.w3.org/TR/2001/REC-SVG-20010904/DTD/svg10.dtd">
<svg version="1.0" xmlns="http://www.w3.org/2000/svg"
 width="1500.000000pt" height="516.000000pt" viewBox="0 0 1500.000000 516.000000"
 preserveAspectRatio="xMidYMid meet">
<metadata>
Created by potrace 1.12, written by Peter Selinger 2001-2015
</metadata>
<g transform="translate(0.000000,516.000000) scale(0.100000,-0.100000)"
fill="#000000" stroke="none">
<path d="M1987 5113 c-55 -81 -55 -86 -6 -157 42 -61 45 -64 63 -48 23 22 76
112 76 132 0 15 -88 110 -101 110 -4 0 -18 -17 -32 -37z"/>
<path d="M1701 5113 c-5 -10 -13 -35 -19 -55 -9 -34 -7 -41 17 -75 29 -40 59
-69 65 -62 2 2 18 33 35 67 31 62 32 65 14 84 -16 18 -84 58 -97 58 -3 0 -9
-8 -15 -17z"/>
<path d="M2264 5078 c-10 -23 -18 -57 -18 -77 0 -37 65 -215 112 -306 l25 -50
14 70 c8 39 15 108 16 155 1 71 -2 92 -22 130 -22 42 -87 120 -102 120 -3 0
-14 -19 -25 -42z"/>
<path d="M2497 5067 l-48 -42 21 -48 c12 -26 27 -47 34 -47 17 0 106 78 106
94 0 14 -48 86 -58 86 -4 -1 -29 -20 -55 -43z"/>
<path d="M1510 5060 c-25 -16 0 -62 48 -88 23 -13 42 -19 42 -13 0 21 -22 67
-42 89 -24 25 -27 26 -48 12z"/>
<path d="M2860 5050 c-17 -17 -19 -24 -9 -43 17 -32 17 -32 39 -12 23 21 26
48 6 64 -12 10 -19 8 -36 -9z"/>
<path d="M1320 4937 c0 -90 -6 -81 77 -129 l32 -19 -4 33 c-3 18 -7 55 -11 83
-5 39 -13 56 -41 82 -19 18 -39 33 -44 33 -5 0 -9 -37 -9 -83z"/>
<path d="M2691 4973 c-22 -26 -43 -60 -46 -75 -7 -30 14 -188 24 -188 4 0 17
10 29 23 22 23 82 184 82 219 0 21 -28 68 -40 68 -5 0 -27 -21 -49 -47z"/>
<path d="M2994 4998 c-57 -42 -96 -84 -116 -121 -10 -22 -17 -41 -14 -44 6 -6
174 66 180 76 7 11 -6 111 -14 111 -4 0 -20 -10 -36 -22z"/>
<path d="M1177 4911 c7 -45 11 -49 52 -57 32 -7 34 -6 28 17 -4 13 -7 31 -7
40 0 11 -14 20 -39 27 l-39 9 5 -36z"/>
<path d="M2136 4931 c-10 -11 -29 -49 -42 -86 l-24 -66 46 -32 c25 -17 59 -41
76 -52 l31 -19 -6 54 c-8 67 -42 199 -54 211 -6 6 -17 2 -27 -10z"/>
<path d="M1495 4866 c6 -37 14 -68 16 -70 5 -4 202 -36 205 -33 2 1 -6 22 -16
45 -17 38 -28 47 -92 77 -41 18 -85 36 -100 40 l-26 7 13 -66z"/>
<path d="M1857 4869 l-37 -60 25 -43 c13 -23 36 -53 49 -65 l25 -23 25 51 c35
68 33 104 -6 157 -18 24 -35 43 -38 43 -3 0 -22 -27 -43 -60z"/>
<path d="M3125 4886 c-27 -13 -60 -35 -73 -48 -20 -23 -23 -34 -20 -104 l3
-79 66 60 c81 74 99 102 99 154 0 48 -6 50 -75 17z"/>
<path d="M1023 4863 c-26 -10 -14 -57 21 -85 19 -16 37 -28 40 -28 4 0 6 21 6
46 0 58 -26 84 -67 67z"/>
<path d="M2538 4821 c-20 -17 -41 -46 -47 -64 -15 -48 -33 -178 -29 -209 3
-26 3 -26 61 25 l58 52 -3 114 -3 115 -37 -33z"/>
<path d="M1160 4743 c0 -48 5 -68 28 -104 30 -46 69 -85 77 -78 2 3 6 49 7
103 l3 99 -35 12 c-87 30 -80 33 -80 -32z"/>
<path d="M885 4752 c8 -46 47 -96 110 -139 26 -19 49 -32 50 -31 2 2 0 30 -3
63 -7 58 -9 61 -54 91 -26 17 -61 37 -78 43 l-32 11 7 -38z"/>
<path d="M2915 4766 c-58 -26 -115 -72 -115 -91 0 -16 48 -125 55 -125 3 0 19
7 35 15 30 15 51 61 70 146 5 25 12 53 16 62 8 22 -1 21 -61 -7z"/>
<path d="M3287 4740 c-59 -11 -68 -26 -84 -151 -16 -124 -12 -226 9 -279 l14
-34 63 195 c35 107 70 213 77 237 l13 42 -27 -1 c-15 -1 -44 -5 -65 -9z"/>
<path d="M1544 4727 c-8 -22 12 -55 46 -72 16 -8 33 -15 38 -15 9 0 27 79 20
85 -2 2 -24 6 -50 10 -38 6 -49 4 -54 -8z"/>
<path d="M1700 4653 c0 -67 1 -70 38 -105 20 -20 47 -41 60 -47 26 -14 27 -11
12 75 -6 32 -13 73 -15 90 -4 25 -12 33 -33 37 -15 3 -35 9 -44 12 -16 6 -18
0 -18 -62z"/>
<path d="M730 4703 c0 -4 10 -37 22 -75 21 -64 25 -70 79 -103 31 -19 59 -35
62 -35 2 0 1 21 -4 48 -21 116 -62 172 -125 172 -19 0 -34 -3 -34 -7z"/>
<path d="M1354 4678 c34 -204 35 -207 161 -285 114 -71 113 -72 114 35 1 83
-16 117 -95 191 -47 44 -78 64 -116 76 -69 20 -70 20 -64 -17z"/>
<path d="M2046 4682 c-2 -4 -11 -34 -20 -67 -15 -58 -15 -60 7 -83 12 -13 34
-33 49 -43 l26 -19 42 76 c23 42 40 77 38 79 -12 12 -138 63 -142 57z"/>
<path d="M3443 4668 c-22 -10 -35 -39 -48 -105 -8 -40 -2 -41 44 -7 51 38 61
53 61 91 0 36 -15 41 -57 21z"/>
<path d="M3084 4604 c-27 -20 -51 -39 -54 -41 -3 -3 15 -23 39 -44 24 -22 45
-38 47 -36 6 6 26 149 21 153 -2 3 -26 -12 -53 -32z"/>
<path d="M2712 4594 c-35 -25 -49 -63 -57 -158 l-8 -89 59 6 c76 8 94 28 94
104 0 41 -7 68 -27 104 -14 27 -29 49 -32 49 -4 0 -17 -7 -29 -16z"/>
<path d="M940 4576 c0 -32 30 -156 46 -190 14 -27 24 -36 43 -36 14 0 36 -3
49 -6 21 -6 22 -4 22 59 0 75 -4 81 -102 148 -40 27 -58 35 -58 25z"/>
<path d="M2242 4543 c-49 -117 -50 -161 -3 -222 l19 -25 42 28 43 28 -7 60
c-3 34 -6 76 -6 95 0 33 -35 83 -58 83 -5 0 -19 -21 -30 -47z"/>
<path d="M3523 4542 c-83 -49 -138 -104 -169 -164 -14 -28 -24 -51 -22 -53 6
-5 170 -26 174 -22 8 8 85 260 82 269 -2 4 -31 -9 -65 -30z"/>
<path d="M1136 4543 c48 -200 114 -279 271 -327 l22 -7 -15 53 c-22 75 -69
159 -112 201 -35 34 -147 107 -164 107 -5 0 -5 -12 -2 -27z"/>
<path d="M563 4494 c4 -16 12 -58 19 -92 10 -54 16 -65 37 -74 28 -10 265 -7
276 4 13 12 -34 75 -94 127 l-59 51 -92 7 -93 6 6 -29z"/>
<path d="M2938 4482 l-37 -27 -1 -102 c0 -57 1 -103 3 -103 1 0 54 22 117 49
114 48 115 49 115 82 0 30 -7 38 -69 81 -38 27 -74 48 -80 48 -6 -1 -28 -13
-48 -28z"/>
<path d="M2496 4383 c-72 -69 -77 -77 -66 -98 6 -12 25 -30 42 -40 l30 -17 36
35 c33 34 36 41 41 116 4 45 4 81 1 81 -3 0 -40 -35 -84 -77z"/>
<path d="M3607 4378 c-14 -45 -24 -84 -22 -86 2 -3 32 21 65 52 34 31 65 56
70 56 5 0 18 14 30 30 l21 30 -68 0 -69 0 -27 -82z"/>
<path d="M1947 4364 l-36 -87 62 -66 c34 -36 63 -68 64 -70 2 -3 110 54 121
64 8 7 -63 108 -159 227 -15 19 -17 15 -52 -68z"/>
<path d="M1710 4342 c0 -61 5 -87 23 -122 12 -24 27 -45 32 -47 6 -2 18 16 27
39 9 24 23 59 31 79 l16 36 -56 46 c-30 26 -59 47 -64 47 -5 0 -9 -35 -9 -78z"/>
<path d="M3780 4316 c-63 -18 -100 -39 -139 -79 l-33 -35 23 -13 c37 -19 106
-15 136 7 35 26 79 83 88 112 7 26 -5 27 -75 8z"/>
<path d="M360 4295 c0 -4 9 -18 20 -32 11 -14 20 -32 20 -40 0 -22 45 -33 131
-33 l79 0 -32 50 -33 50 -61 0 c-34 0 -76 3 -93 6 -17 4 -31 3 -31 -1z"/>
<path d="M1041 4279 c7 -13 24 -39 38 -56 26 -33 27 -33 110 -33 84 0 84 0 66
20 -26 29 -132 78 -184 86 -43 7 -43 7 -30 -17z"/>
<path d="M1500 4282 c0 -4 23 -76 52 -160 39 -117 58 -160 82 -182 16 -17 33
-30 36 -30 4 0 17 34 30 76 26 89 23 105 -34 208 -28 51 -43 67 -69 74 -50 16
-97 22 -97 14z"/>
<path d="M2586 4213 c-25 -43 -46 -89 -46 -103 0 -14 12 -60 26 -103 26 -79
27 -79 57 -73 47 10 93 43 112 82 9 19 27 89 39 155 l23 119 -82 0 -83 0 -46
-77z"/>
<path d="M680 4272 c0 -13 43 -50 70 -60 32 -12 229 -36 236 -29 10 10 -6 44
-33 71 -25 25 -30 26 -149 26 -68 0 -124 -4 -124 -8z"/>
<path d="M3023 4212 c-61 -37 -118 -74 -126 -80 -17 -14 -43 -109 -33 -119 10
-10 156 26 212 53 65 31 86 70 82 151 -2 31 -8 58 -13 60 -6 2 -60 -28 -122
-65z"/>
<path d="M3236 4181 l-46 -91 55 0 c31 0 72 7 91 15 35 14 144 101 144 115 0
3 -35 14 -77 23 -43 10 -88 20 -100 23 -19 5 -27 -5 -67 -85z"/>
<path d="M2270 4182 l-53 -48 16 -29 c15 -30 132 -168 146 -173 13 -5 71 133
71 168 0 27 -10 43 -50 82 -27 26 -56 48 -63 48 -7 0 -37 -21 -67 -48z"/>
<path d="M1861 4111 l-23 -59 39 -36 c21 -19 41 -36 45 -36 12 0 29 80 23 109
-3 16 -19 40 -34 55 l-28 27 -22 -60z"/>
<path d="M3821 4147 c-38 -19 -61 -58 -67 -114 l-7 -51 73 14 c40 7 83 20 96
29 25 16 51 60 65 107 l8 28 -72 0 c-40 0 -83 -6 -96 -13z"/>
<path d="M563 4143 c-28 -5 -28 -4 -3 -53 l20 -40 100 0 c55 0 100 3 100 6 0
16 -45 66 -70 79 -27 14 -97 18 -147 8z"/>
<path d="M841 4124 c29 -32 94 -63 132 -64 33 0 34 6 2 53 -25 36 -27 37 -92
37 l-66 0 24 -26z"/>
<path d="M1247 4135 c-42 -6 -79 -14 -81 -16 -10 -9 24 -69 48 -84 25 -17 155
-44 212 -45 l32 0 -9 41 c-13 54 -35 96 -58 109 -23 12 -40 11 -144 -5z"/>
<path d="M294 4095 c-52 -16 -84 -33 -84 -44 0 -24 94 -70 163 -81 40 -6 87
-13 105 -16 30 -5 32 -3 32 26 0 42 -23 94 -51 114 -28 19 -106 20 -165 1z"/>
<path d="M3444 4062 c-45 -41 -52 -53 -58 -95 -6 -46 -5 -48 17 -42 61 18 107
81 107 148 0 20 -3 37 -7 37 -5 -1 -31 -22 -59 -48z"/>
<path d="M3586 4098 c-18 -58 -36 -117 -42 -132 -7 -17 -3 -18 52 -11 32 3 62
10 67 14 4 4 10 37 14 74 l6 67 -47 0 c-29 0 -48 -5 -50 -12z"/>
<path d="M2080 4048 c-37 -40 -36 -64 6 -112 22 -24 42 -45 46 -45 7 -1 28 87
28 118 0 16 -38 61 -53 61 -3 0 -16 -10 -27 -22z"/>
<path d="M575 3978 c15 -76 9 -72 133 -86 84 -10 87 -5 42 56 -38 53 -57 62
-125 62 l-57 0 7 -32z"/>
<path d="M3239 3968 c-46 -23 -92 -60 -164 -132 l-100 -100 37 -4 c50 -4 154
23 198 52 43 28 88 108 96 170 4 25 5 46 2 46 -3 0 -34 -14 -69 -32z"/>
<path d="M835 3966 c9 -13 73 -77 142 -142 l126 -119 81 -3 81 -4 -100 102
c-55 56 -119 115 -142 131 -40 28 -134 59 -180 59 -22 0 -23 -1 -8 -24z"/>
<path d="M1805 3959 c-16 -50 25 -169 59 -169 8 0 16 16 20 41 7 41 2 52 -55
127 l-17 23 -7 -22z"/>
<path d="M3905 3962 c-70 -26 -99 -43 -89 -51 16 -14 143 -63 153 -59 5 1 25
23 45 48 29 37 33 47 23 58 -22 22 -79 23 -132 4z"/>
<path d="M2956 3934 c-55 -13 -106 -30 -114 -37 -23 -18 -52 -88 -52 -124 0
-37 21 -53 72 -53 29 0 43 12 128 107 52 58 99 112 103 120 11 19 -19 16 -137
-13z"/>
<path d="M1130 3937 c0 -2 17 -21 38 -43 l37 -41 65 25 65 26 -40 11 c-38 11
-165 28 -165 22z"/>
<path d="M385 3910 c-4 -6 12 -29 36 -52 36 -35 50 -42 93 -46 l50 -5 -15 24
c-31 47 -148 104 -164 79z"/>
<path d="M213 3903 c-13 -2 -23 -8 -23 -13 0 -14 70 -70 88 -70 9 -1 34 -3 55
-6 48 -7 49 12 5 61 -33 35 -58 41 -125 28z"/>
<path d="M2000 3903 c0 -7 9 -35 20 -63 24 -61 25 -112 5 -244 -22 -146 -20
-187 15 -266 45 -102 38 -173 -9 -96 -29 46 -110 120 -159 145 -46 23 -143 51
-179 51 -44 0 -23 -17 61 -48 96 -37 149 -81 186 -158 22 -44 25 -62 25 -169
0 -73 -5 -134 -13 -155 -15 -42 -53 -90 -59 -74 -2 6 -10 19 -17 30 -13 17
-15 17 -53 -8 -21 -14 -58 -35 -81 -47 -47 -24 -132 -43 -132 -30 0 4 33 27
73 51 l72 43 -45 3 c-25 2 -131 -6 -236 -17 -199 -21 -259 -19 -404 13 -127
28 -180 28 -466 2 -321 -30 -350 -34 -338 -46 5 -5 45 -15 89 -21 44 -6 82
-13 84 -15 2 -2 -8 -13 -23 -25 -15 -12 -26 -23 -24 -25 2 -2 40 8 83 22 100
32 261 41 426 25 104 -10 186 -27 177 -37 -4 -4 -355 -34 -395 -34 -15 0 -23
-3 -19 -7 4 -5 67 -10 139 -13 79 -3 131 -9 131 -15 -1 -5 -5 -20 -8 -32 -7
-21 -2 -20 71 17 105 54 198 73 281 59 34 -6 62 -14 62 -18 0 -17 -381 -151
-430 -151 -19 0 -73 7 -120 15 -65 12 -119 14 -230 9 l-145 -6 -94 36 c-52 20
-95 35 -97 33 -2 -2 23 -19 56 -38 33 -19 60 -37 60 -41 0 -7 -32 -15 -122
-28 -34 -5 34 -8 194 -9 260 -1 357 -12 443 -50 26 -11 45 -27 45 -36 0 -8
-15 -32 -34 -52 -32 -35 -38 -37 -102 -41 -50 -3 -100 4 -181 22 -164 38 -189
31 -49 -14 65 -21 126 -45 134 -54 14 -14 9 -18 -52 -47 -64 -30 -73 -32 -182
-31 -63 1 -114 0 -114 -3 0 -2 16 -13 37 -23 l36 -19 -39 -27 c-21 -14 -36
-26 -32 -26 3 0 48 8 99 19 52 10 110 22 130 25 l37 7 -29 -117 c-17 -64 -29
-120 -27 -126 2 -5 23 46 48 113 25 67 56 134 70 149 25 27 172 90 209 90 11
0 25 -9 31 -20 6 -11 14 -20 18 -20 4 0 22 30 41 66 59 114 156 194 286 234
22 6 84 32 137 57 76 35 106 44 140 41 l43 -3 -55 -35 c-77 -48 -44 -49 68 0
53 23 117 43 150 46 l57 6 -20 -20 c-11 -12 -72 -50 -135 -85 -67 -38 -116
-71 -118 -82 -5 -25 17 -17 223 86 131 64 196 91 240 98 33 5 64 7 69 4 4 -3
-14 -17 -40 -32 -27 -15 -103 -63 -169 -107 -215 -144 -187 -135 -376 -133
-90 1 -177 -2 -194 -7 l-30 -8 25 -7 c14 -4 46 -7 71 -8 26 -1 87 -13 135 -27
130 -38 146 -36 289 34 120 59 125 60 125 38 0 -44 -22 -81 -71 -121 -111 -88
-86 -79 -402 -151 -67 -15 -149 -26 -219 -29 -89 -3 -116 -7 -134 -22 -74 -60
-322 -272 -366 -314 l-53 -50 39 16 c22 8 41 13 43 11 2 -2 0 -40 -5 -85 -4
-44 -6 -81 -2 -81 3 0 18 37 34 83 16 45 39 100 51 122 32 57 112 128 181 163
58 29 194 76 201 69 7 -8 -56 -149 -98 -220 -41 -70 -173 -212 -284 -306 l-50
-42 64 32 c36 17 99 55 141 84 100 71 104 71 110 11 l5 -49 39 109 c53 147
108 253 156 302 32 34 56 46 140 73 55 17 102 30 104 28 2 -2 -1 -65 -6 -139
-12 -180 -27 -212 -148 -315 -89 -75 -174 -164 -166 -173 6 -5 50 26 137 95
36 29 71 53 78 53 6 0 11 -19 12 -47 l1 -48 17 65 c22 83 33 104 91 165 l47
51 12 114 c23 231 15 206 78 230 87 32 95 31 120 -18 27 -54 19 -85 -37 -150
-39 -44 -65 -82 -57 -82 2 0 32 22 68 50 35 27 69 50 75 50 6 0 25 -33 42 -74
l30 -74 -37 -34 c-20 -19 -77 -69 -127 -111 -121 -101 -149 -135 -164 -196
-11 -47 -18 -56 -69 -90 -31 -21 -89 -53 -129 -71 -40 -18 -71 -35 -69 -37 2
-2 36 3 76 12 40 8 74 15 76 15 2 0 7 -20 11 -45 9 -65 21 -64 26 2 5 55 7 60
65 113 40 36 72 77 92 117 18 37 47 75 73 96 50 41 153 107 166 107 14 0 -8
-119 -34 -183 -13 -32 -54 -102 -92 -155 -38 -53 -79 -117 -92 -141 l-22 -43
58 41 58 42 23 -48 23 -48 -4 59 c-6 72 10 115 53 146 18 12 34 21 35 19 2 -2
13 -26 25 -52 23 -54 111 -191 118 -184 2 3 -6 31 -18 63 -11 33 -30 87 -41
122 l-20 62 23 100 c12 55 25 100 29 100 3 0 50 -78 103 -174 94 -169 97 -177
97 -237 l0 -63 28 27 28 27 24 -25 c13 -14 25 -23 27 -21 2 2 -24 59 -58 127
-70 141 -113 249 -99 249 5 0 55 -18 110 -40 55 -22 103 -40 107 -40 4 0 -5
12 -19 28 l-26 27 47 73 c57 87 59 85 68 -58 4 -70 1 -114 -11 -167 -9 -40
-16 -89 -15 -110 0 -36 2 -33 51 62 28 55 52 101 53 103 6 7 95 -63 95 -74 0
-6 -7 -31 -15 -54 -21 -59 -19 -60 19 -16 l33 40 46 -27 c26 -14 47 -23 47
-21 0 3 -47 54 -103 113 -97 100 -105 111 -120 171 -20 80 -28 160 -15 160 4
0 35 -13 67 -29 90 -46 150 -115 226 -260 36 -69 64 -117 61 -106 -3 11 -10
39 -17 63 -7 23 -10 44 -7 47 2 3 28 -2 56 -10 50 -15 92 -52 92 -81 0 -24 18
-15 24 12 7 25 9 26 54 19 47 -6 47 -6 23 11 -13 10 -69 37 -124 61 -131 58
-144 67 -174 127 -34 69 -61 96 -178 179 -152 108 -287 211 -318 245 -34 35
-35 31 55 166 50 73 59 93 54 118 -3 17 1 44 9 65 18 42 24 39 87 -40 42 -54
46 -80 24 -164 -8 -29 -17 -76 -20 -105 l-6 -53 50 100 c27 55 51 103 52 107
2 5 29 3 60 -4 55 -12 58 -14 64 -48 16 -106 45 -222 64 -262 13 -28 46 -67
82 -99 65 -57 92 -104 103 -183 8 -50 25 -47 25 6 0 15 4 29 9 32 5 3 57 -28
115 -70 59 -42 109 -74 112 -72 5 6 -137 142 -240 231 -84 71 -122 123 -131
178 -4 22 -5 42 -3 44 2 2 50 -1 106 -7 92 -10 105 -10 119 5 23 23 14 27 -31
17 -26 -6 -55 -4 -93 6 -108 28 -136 54 -148 137 -5 38 -3 47 9 47 26 0 240
-81 273 -103 67 -45 108 -119 175 -316 27 -79 55 -156 63 -170 13 -23 14 -17
8 67 -3 50 -3 92 1 92 3 0 41 -22 84 -48 164 -102 164 -102 7 59 -137 140
-155 163 -204 257 -29 57 -51 106 -47 109 9 10 109 -7 148 -25 38 -17 132 -90
220 -171 49 -44 55 -57 82 -176 12 -53 14 -56 16 -25 1 19 5 47 9 62 l6 27 43
-19 43 -19 -78 90 c-80 94 -205 212 -282 268 -53 37 -83 46 -226 65 -116 15
-398 82 -489 116 -77 29 -130 71 -154 122 -25 54 -35 108 -20 108 6 0 47 -22
92 -50 127 -77 142 -79 360 -45 102 16 184 31 181 34 -3 3 -83 8 -179 11 -200
6 -186 2 -426 149 -139 85 -179 115 -167 127 12 13 129 -26 257 -85 129 -60
190 -84 197 -77 8 7 -60 52 -142 95 -87 45 -121 68 -113 76 9 9 115 -15 180
-41 155 -64 156 -64 162 -49 3 10 -19 27 -69 55 -41 23 -75 44 -75 47 0 15 96
-15 171 -54 60 -31 114 -50 184 -64 169 -34 235 -87 291 -230 26 -66 28 -68
45 -53 23 21 94 15 189 -15 102 -32 123 -50 206 -176 42 -64 78 -115 80 -113
2 3 -14 51 -36 108 -22 57 -38 105 -37 106 2 2 36 -5 77 -16 41 -11 76 -17 78
-15 2 2 -7 6 -20 10 -54 17 -258 119 -251 126 10 9 164 49 191 49 10 0 48 -13
83 -29 109 -49 119 -48 55 5 -53 42 -57 49 -42 58 10 6 28 18 39 27 20 16 19
16 -14 12 -19 -3 -98 -15 -177 -29 -174 -29 -216 -30 -286 -4 -56 21 -147 92
-134 105 4 4 34 8 67 9 51 1 72 -5 150 -43 50 -25 93 -42 96 -39 13 12 -10 40
-49 60 -50 25 -86 57 -86 76 0 12 37 14 239 11 132 -2 234 -1 228 3 -7 4 -28
8 -47 8 -19 1 -55 9 -80 19 l-45 18 73 37 c39 20 72 38 72 41 0 5 -64 -15
-145 -46 -51 -19 -82 -23 -205 -24 -86 -1 -179 -9 -229 -19 -138 -27 -166 -23
-370 48 -101 36 -188 69 -194 75 -6 6 14 12 56 16 84 9 190 -12 298 -59 72
-31 80 -32 75 -15 -20 65 -33 59 123 59 83 0 141 4 141 10 0 19 -78 30 -220
31 -80 1 -156 4 -170 8 -24 7 -24 8 10 19 64 20 194 34 315 34 95 -1 140 -6
218 -26 119 -32 129 -32 95 -1 -16 13 -25 26 -20 28 4 3 66 8 139 12 222 12
216 20 -27 34 -397 24 -422 24 -609 2 -97 -11 -232 -25 -301 -30 -69 -6 -150
-18 -180 -26 -32 -9 -91 -14 -143 -13 -58 1 -91 -3 -96 -11 -5 -8 -20 -7 -57
4 -63 19 -64 19 -64 -5 0 -30 -18 -25 -92 25 -37 25 -72 45 -77 45 -6 0 -1
-25 9 -55 21 -60 18 -64 -36 -45 l-30 11 4 127 c4 178 3 175 32 122 l24 -45
12 62 c18 84 36 116 85 150 23 15 49 38 57 51 l15 23 -52 -20 c-66 -27 -148
-68 -185 -94 -42 -30 -55 -73 -68 -225 -6 -75 -14 -143 -18 -151 -11 -20 -24
257 -15 321 9 66 29 105 96 188 69 85 77 108 89 240 8 97 14 119 41 168 57
102 81 151 78 160 -5 13 -170 -171 -193 -215 -13 -25 -19 -59 -20 -107 -1 -39
-7 -80 -13 -91 -19 -34 -81 -88 -92 -80 -6 3 -21 25 -33 48 -19 36 -23 65 -29
202 -4 88 -12 177 -19 197 -14 40 -69 112 -70 91z m349 -1398 c35 -40 36 -48
20 -128 -13 -66 -27 -71 -69 -29 -27 28 -50 85 -50 129 0 19 42 63 60 63 5 0
22 -16 39 -35z m-243 -31 c12 -82 -1 -168 -33 -226 -16 -28 -35 -54 -40 -55
-14 -5 -52 109 -55 162 -6 102 -2 113 50 139 26 14 52 25 59 26 6 0 15 -21 19
-46z m-114 -259 c12 -14 17 -38 18 -84 0 -35 5 -81 12 -102 9 -32 8 -46 -5
-79 -17 -45 -17 -44 17 -29 30 14 36 34 36 132 l0 78 57 60 c31 32 60 59 64
59 17 0 59 -76 59 -106 0 -20 -16 -55 -45 -100 -68 -103 -68 -109 -4 -167 30
-26 84 -69 120 -94 l67 -45 -45 -107 c-25 -58 -50 -119 -55 -134 -9 -24 -15
-27 -35 -23 -41 11 -121 66 -158 109 -37 43 -100 190 -84 196 6 1 55 -15 109
-38 54 -23 106 -41 116 -41 36 0 -21 43 -123 92 -137 67 -187 123 -226 255
-18 59 -14 80 28 161 30 56 34 56 77 7z"/>
<path d="M2235 3899 c-3 -8 -16 -52 -29 -98 l-24 -83 40 38 c22 22 49 52 60
67 l21 29 -31 31 c-24 23 -32 27 -37 16z"/>
<path d="M3508 3876 c-141 -24 -165 -36 -205 -103 l-25 -43 121 0 c136 0 164
9 204 62 27 37 50 96 39 101 -4 2 -64 -6 -134 -17z"/>
<path d="M2680 3852 l-55 -18 -8 -69 c-4 -38 -6 -73 -4 -78 5 -16 76 52 101
97 28 48 41 86 29 85 -4 0 -33 -8 -63 -17z"/>
<path d="M1507 3814 c23 -27 57 -65 77 -83 l36 -35 0 77 c0 73 -1 77 -22 77
-13 0 -48 3 -78 7 l-55 6 42 -49z"/>
<path d="M626 3841 c-11 -18 39 -64 150 -136 63 -41 123 -75 133 -75 25 0 111
30 111 39 0 15 -70 97 -102 121 -24 18 -60 28 -147 41 -136 21 -138 22 -145
10z"/>
<path d="M3680 3780 l-43 -63 70 5 c51 4 84 13 121 33 29 16 52 31 52 36 0 10
-72 38 -119 45 -39 6 -39 6 -81 -56z"/>
<path d="M1322 3810 c-18 -4 -35 -10 -38 -13 -9 -9 99 -98 113 -92 8 3 32 8
54 11 21 4 39 10 39 14 0 13 -103 90 -119 89 -9 -1 -31 -5 -49 -9z"/>
<path d="M4053 3810 c-47 -10 -82 -27 -131 -63 -26 -20 -30 -26 -17 -31 32
-12 156 -6 185 9 24 13 70 70 70 89 0 8 -54 6 -107 -4z"/>
<path d="M1696 3747 c-12 -107 -14 -105 121 -190 10 -6 13 5 13 46 0 48 -4 59
-46 112 -25 33 -53 65 -63 72 -17 11 -19 8 -25 -40z"/>
<path d="M1928 3784 c-28 -48 -35 -231 -10 -256 12 -12 40 67 48 138 5 39 2
59 -13 89 -11 21 -22 34 -25 29z"/>
<path d="M391 3744 c42 -45 71 -54 174 -54 52 0 95 4 95 8 0 16 -47 53 -81 62
-19 6 -74 10 -123 10 l-89 0 24 -26z"/>
<path d="M2515 3743 c-31 -34 -48 -86 -43 -132 l3 -35 38 36 c35 33 37 39 37
97 0 33 -2 61 -5 61 -2 0 -16 -12 -30 -27z"/>
<path d="M133 3747 c-24 -5 -43 -13 -43 -17 0 -4 16 -21 35 -38 34 -32 35 -32
146 -32 127 0 129 3 30 64 -63 38 -90 42 -168 23z"/>
<path d="M3150 3661 c0 -5 12 -24 27 -43 15 -18 28 -35 29 -37 2 -2 29 12 61
30 109 61 110 59 -10 59 -59 0 -107 -4 -107 -9z"/>
<path d="M3520 3626 c-16 -58 -10 -90 16 -94 15 -2 35 14 72 60 29 35 52 66
52 70 0 5 -29 8 -64 8 l-63 0 -13 -44z"/>
<path d="M4075 3650 c-23 -9 -165 -163 -165 -179 0 -41 175 55 258 142 l33 34
-32 7 c-41 8 -69 7 -94 -4z"/>
<path d="M2724 3631 c-29 -18 -62 -72 -79 -130 l-7 -25 29 20 c134 86 213 140
213 147 0 4 -28 7 -62 7 -44 0 -72 -6 -94 -19z"/>
<path d="M1363 3623 c-18 -2 -33 -8 -33 -13 0 -28 156 -80 280 -94 l55 -6 -35
31 c-19 17 -55 44 -79 60 -46 29 -88 34 -188 22z"/>
<path d="M3364 3590 c-33 -22 -75 -53 -94 -70 l-35 -29 40 -1 c81 0 144 12
149 29 12 42 16 111 8 111 -5 0 -36 -18 -68 -40z"/>
<path d="M300 3604 c0 -6 32 -39 71 -74 l70 -63 90 13 c49 7 89 16 89 19 0 4
-24 30 -52 58 l-53 52 -108 3 c-73 2 -107 0 -107 -8z"/>
<path d="M591 3602 c-10 -7 -1 -19 39 -51 82 -65 110 -74 215 -66 139 10 139
10 49 68 l-79 51 -105 3 c-58 2 -111 0 -119 -5z"/>
<path d="M1046 3596 c-67 -13 -78 -26 -41 -50 32 -21 52 -15 95 29 37 38 35
39 -54 21z"/>
<path d="M3713 3604 c-13 -6 -123 -146 -123 -157 0 -4 47 -7 104 -7 l105 0 56
78 56 77 -58 6 c-71 8 -124 9 -140 3z"/>
<path d="M2901 3537 l-94 -62 59 -6 c125 -14 189 -10 218 12 14 11 26 27 26
34 0 13 -97 86 -110 84 -3 0 -47 -28 -99 -62z"/>
<path d="M5190 3315 c0 -278 0 -285 20 -285 19 0 20 7 20 140 l0 140 180 0
180 0 0 -140 c0 -133 1 -140 20 -140 20 0 20 7 20 285 0 278 0 285 -20 285
-19 0 -20 -7 -20 -130 l0 -130 -180 0 -180 0 0 130 c0 123 -1 130 -20 130 -20
0 -20 -7 -20 -285z"/>
<path d="M1168 3549 c-32 -16 -58 -33 -58 -37 0 -15 44 -51 82 -67 39 -16 175
-21 262 -9 l47 7 -36 24 c-57 39 -204 113 -223 113 -9 -1 -43 -14 -74 -31z"/>
<path d="M96 3540 l-57 -25 33 -35 c18 -19 47 -43 63 -53 17 -9 45 -28 64 -42
29 -21 45 -25 108 -25 l75 0 -19 24 c-10 13 -47 58 -83 99 -77 89 -99 95 -184
57z"/>
<path d="M4097 3464 c-31 -25 -54 -50 -51 -55 13 -22 117 9 172 52 l23 18 -30
15 c-42 22 -49 21 -114 -30z"/>
<path d="M2494 3472 c-41 -30 -68 -64 -84 -106 -9 -24 -8 -24 23 -14 46 15 86
56 98 101 6 21 8 41 6 43 -2 2 -22 -9 -43 -24z"/>
<path d="M5815 3434 c-75 -39 -109 -100 -109 -199 -1 -136 68 -215 186 -215
41 0 64 6 89 23 39 26 79 81 79 108 0 33 -24 20 -45 -23 -28 -59 -64 -82 -125
-82 -79 0 -138 55 -147 138 l-6 46 168 0 167 0 -7 48 c-15 104 -84 172 -175
172 -25 0 -58 -7 -75 -16z m171 -56 c25 -25 37 -47 41 -76 l6 -42 -147 0
c-165 0 -162 -2 -126 77 27 60 70 85 138 80 45 -3 59 -9 88 -39z"/>
<path d="M8015 3434 c-75 -39 -109 -100 -109 -199 -1 -136 68 -215 186 -215
41 0 64 6 89 23 39 26 79 81 79 108 0 33 -24 20 -45 -23 -28 -59 -64 -82 -125
-82 -79 0 -138 55 -147 138 l-6 46 168 0 167 0 -7 48 c-15 104 -84 172 -175
172 -25 0 -58 -7 -75 -16z m171 -56 c25 -25 37 -47 41 -76 l6 -42 -147 0
c-165 0 -162 -2 -126 77 27 60 70 85 138 80 45 -3 59 -9 88 -39z"/>
<path d="M8723 3431 c-66 -31 -97 -87 -102 -182 -2 -60 1 -86 17 -121 63 -144
269 -146 333 -3 25 55 25 166 0 221 -41 91 -153 129 -248 85z m162 -31 c49
-30 70 -81 70 -170 0 -121 -50 -180 -152 -180 -63 0 -105 26 -132 82 -49 102
-11 244 74 279 38 15 106 10 140 -11z"/>
<path d="M9390 3439 c-66 -26 -120 -118 -120 -204 0 -62 28 -131 69 -168 100
-90 263 -44 287 81 10 47 -11 40 -35 -13 -25 -56 -70 -85 -132 -85 -94 0 -151
70 -151 185 0 77 23 129 73 163 28 20 44 23 91 20 63 -5 97 -27 118 -79 16
-38 45 -40 36 -3 -11 42 -37 74 -77 95 -41 21 -117 24 -159 8z"/>
<path d="M11444 3432 c-68 -32 -104 -100 -104 -196 0 -76 14 -121 49 -160 34
-38 80 -56 138 -56 75 0 133 42 160 117 11 30 10 33 -6 33 -12 0 -21 -10 -26
-27 -23 -95 -166 -132 -233 -60 -26 28 -52 88 -52 122 l0 25 166 0 167 0 -7
46 c-14 104 -71 165 -159 171 -36 3 -64 -2 -93 -15z m153 -32 c34 -21 56 -56
68 -107 l7 -33 -152 0 -152 0 7 33 c11 49 45 98 79 113 45 19 106 17 143 -6z"/>
<path d="M11864 3436 c-131 -57 -152 -302 -32 -387 41 -29 129 -37 180 -16 39
17 83 67 93 110 11 43 -17 34 -40 -14 -28 -59 -64 -83 -123 -83 -83 0 -145 59
-154 144 l-3 35 167 3 167 2 -6 38 c-8 62 -22 96 -49 126 -50 53 -133 71 -200
42z m162 -47 c29 -26 54 -77 54 -109 0 -19 -6 -20 -146 -20 l-147 0 6 36 c8
46 30 80 70 105 45 28 127 22 163 -12z"/>
<path d="M13345 3435 c-76 -41 -108 -100 -109 -200 -1 -135 68 -215 186 -215
41 0 64 6 89 23 39 26 79 81 79 108 0 33 -24 20 -45 -23 -28 -59 -64 -82 -125
-82 -79 0 -138 55 -147 138 l-6 46 168 0 167 0 -7 47 c-9 63 -38 116 -77 144
-41 30 -130 37 -173 14z m139 -30 c37 -18 76 -79 76 -119 l0 -26 -145 0 c-164
0 -161 -2 -125 77 33 74 118 104 194 68z"/>
<path d="M3124 3419 c-23 -11 -50 -29 -59 -40 -18 -19 -17 -19 29 -19 54 0
103 20 137 56 l22 24 -44 0 c-24 0 -63 -9 -85 -21z"/>
<path d="M6080 3425 c0 -12 16 -15 80 -15 l80 0 0 -190 c0 -162 2 -190 15
-190 13 0 15 28 15 190 l0 190 80 0 c64 0 80 3 80 15 0 13 -26 15 -175 15
-149 0 -175 -2 -175 -15z"/>
<path d="M6700 3235 c0 -176 2 -205 15 -205 12 0 15 18 15 100 l0 100 130 0
130 0 0 -100 c0 -93 1 -100 20 -100 19 0 20 7 20 205 0 198 -1 205 -20 205
-19 0 -20 -7 -20 -90 l0 -90 -130 0 -130 0 0 90 c0 73 -3 90 -15 90 -13 0 -15
-29 -15 -205z"/>
<path d="M7110 3235 l0 -205 23 0 c17 0 48 38 147 183 l125 182 3 -182 c2
-154 5 -183 17 -183 13 0 15 31 15 206 0 205 0 205 -22 202 -15 -2 -57 -55
-142 -179 l-121 -176 -3 178 c-2 171 -3 179 -22 179 -19 0 -20 -7 -20 -205z"/>
<path d="M7532 3349 c3 -88 4 -92 36 -120 37 -34 92 -38 180 -15 l52 13 0 -98
c0 -81 3 -99 15 -99 13 0 15 29 15 205 0 176 -2 205 -15 205 -12 0 -15 -17
-15 -90 0 -89 0 -91 -27 -101 -16 -6 -57 -14 -93 -16 -55 -5 -69 -2 -90 15
-23 18 -25 29 -29 106 -2 68 -6 86 -18 86 -12 0 -14 -15 -11 -91z"/>
<path d="M8340 3235 c0 -176 2 -205 15 -205 13 0 15 28 15 190 l0 190 120 0
c100 0 120 3 120 15 0 13 -22 15 -135 15 l-135 0 0 -205z"/>
<path d="M9700 3235 l0 -205 23 0 c17 1 44 33 125 153 57 84 113 166 125 181
l22 28 0 -181 c0 -167 1 -181 17 -181 17 0 18 16 18 205 l0 205 -22 0 c-18 -1
-48 -38 -143 -178 l-120 -177 -3 178 c-2 169 -3 177 -22 177 -19 0 -20 -7 -20
-205z"/>
<path d="M10200 3310 c0 -199 -23 -269 -85 -258 -20 4 -25 2 -23 -11 4 -21 33
-26 67 -11 47 19 63 69 68 210 6 185 -4 170 108 170 l95 0 0 -190 c0 -162 2
-190 15 -190 13 0 15 29 15 205 l0 205 -130 0 -130 0 0 -130z"/>
<path d="M10540 3235 l0 -205 110 0 c161 0 209 26 218 118 4 43 1 53 -24 81
-35 38 -79 50 -186 51 l-78 0 0 80 c0 73 -2 80 -20 80 -19 0 -20 -7 -20 -205z
m238 -1 c57 -22 75 -69 48 -123 -21 -40 -56 -51 -156 -51 l-90 0 0 95 0 95 80
0 c49 0 95 -6 118 -16z"/>
<path d="M10940 3235 c0 -176 2 -205 15 -205 12 0 15 18 15 100 l0 100 130 0
130 0 0 -100 c0 -82 3 -100 15 -100 13 0 15 29 15 205 0 176 -2 205 -15 205
-12 0 -15 -17 -15 -90 l0 -90 -130 0 -130 0 0 90 c0 73 -3 90 -15 90 -13 0
-15 -29 -15 -205z"/>
<path d="M12410 3235 c0 -191 1 -205 18 -205 12 0 58 58 143 181 l124 181 3
-181 c2 -152 5 -181 17 -181 13 0 15 31 15 205 0 267 3 267 -162 24 l-123
-181 -3 181 c-2 152 -5 181 -17 181 -13 0 -15 -31 -15 -205z"/>
<path d="M12886 3341 c-6 -104 -29 -229 -46 -262 -6 -11 -21 -19 -35 -19 -24
0 -25 -2 -25 -80 0 -73 2 -80 20 -80 18 0 20 7 20 65 l0 65 170 0 170 0 0 -65
c0 -58 2 -65 20 -65 18 0 20 7 20 80 l0 80 -30 0 -30 0 0 190 0 190 -123 0
-124 0 -7 -99z m224 -106 l0 -175 -121 0 c-111 0 -121 1 -114 18 17 45 35 146
41 235 l7 97 93 0 94 0 0 -175z"/>
<path d="M13670 3235 c0 -191 1 -205 18 -205 12 0 58 58 143 181 l124 181 3
-181 c2 -152 5 -181 17 -181 13 0 15 31 15 205 0 267 3 267 -162 24 l-123
-181 -3 181 c-2 152 -5 181 -17 181 -13 0 -15 -31 -15 -205z"/>
<path d="M827 3418 c-6 -19 52 -76 91 -89 18 -6 35 -9 37 -7 8 7 9 84 1 96
-10 17 -123 16 -129 0z"/>
<path d="M1037 3403 c-9 -8 -9 -76 -1 -97 3 -9 15 -16 26 -16 29 0 138 52 138
66 0 30 -140 70 -163 47z"/>
<path d="M3310 3392 c-19 -9 -45 -32 -57 -51 l-23 -34 38 -28 c37 -29 62 -37
62 -20 0 5 17 31 39 58 21 27 42 59 45 71 7 20 4 22 -31 22 -21 0 -54 -8 -73
-18z"/>
<path d="M565 3393 c-27 -2 -53 -8 -57 -12 -5 -4 10 -24 32 -46 l40 -39 115
-4 c63 -3 115 -1 115 3 0 5 -15 27 -32 50 -28 36 -40 44 -77 49 -24 3 -53 5
-65 4 -12 -1 -43 -3 -71 -5z"/>
<path d="M2699 3374 c-47 -23 -156 -136 -139 -142 18 -6 80 19 110 45 29 24
86 110 79 117 -2 2 -25 -7 -50 -20z"/>
<path d="M3512 3349 c-13 -16 -22 -36 -19 -43 5 -14 117 -56 147 -56 19 0 116
96 103 103 -4 2 -44 8 -88 12 -44 3 -89 8 -100 11 -13 2 -28 -7 -43 -27z"/>
<path d="M53 3363 c-24 -2 -43 -8 -43 -13 0 -5 14 -25 31 -45 28 -32 36 -35
86 -35 l54 0 -38 50 c-21 27 -40 49 -43 48 -3 -1 -24 -3 -47 -5z"/>
<path d="M3920 3363 c-25 -9 -90 -55 -90 -64 0 -5 12 -7 28 -4 15 2 62 7 105
11 81 6 93 16 59 47 -18 16 -70 21 -102 10z"/>
<path d="M1448 3323 c59 -75 54 -73 172 -43 l105 26 -32 17 c-36 19 -141 37
-221 37 l-54 0 30 -37z"/>
<path d="M4130 3352 c0 -5 11 -21 25 -36 26 -28 42 -28 110 -1 l30 12 -50 11
c-94 21 -115 24 -115 14z"/>
<path d="M2815 3331 c-30 -5 -45 -14 -62 -40 -13 -19 -23 -38 -23 -42 0 -15
80 -10 113 6 18 8 50 31 72 50 l40 34 -50 -1 c-27 0 -68 -4 -90 -7z"/>
<path d="M1298 3318 c-21 -6 -38 -13 -38 -18 0 -4 19 -12 43 -18 114 -30 128
-26 79 21 -31 29 -30 29 -84 15z"/>
<path d="M3920 3206 l-54 -56 55 0 c43 0 65 6 100 28 45 29 75 59 67 67 -2 2
-29 7 -59 11 l-54 6 -55 -56z"/>
<path d="M338 3243 c-38 -2 -68 -7 -68 -11 1 -4 25 -24 54 -44 l53 -37 63 37
c107 62 101 65 -102 55z"/>
<path d="M3030 3225 c14 -15 37 -33 52 -41 28 -14 104 -17 148 -5 24 7 24 7
-15 36 -34 27 -47 30 -124 34 l-86 3 25 -27z"/>
<path d="M680 3225 c0 -33 64 -79 101 -73 20 3 20 4 -3 38 -19 28 -31 36 -61
38 -20 2 -37 0 -37 -3z"/>
<path d="M1142 3217 c-22 -13 -21 -14 43 -65 l65 -53 32 17 c49 25 108 66 108
74 0 11 -133 40 -181 40 -24 -1 -54 -6 -67 -13z"/>
<path d="M1732 3219 c-40 -12 -34 -23 34 -66 26 -17 53 -45 66 -71 l23 -42 6
30 c10 45 -6 98 -37 131 -29 31 -40 33 -92 18z"/>
<path d="M3740 3213 c-24 -9 -124 -79 -139 -97 -12 -14 -8 -16 36 -16 45 0 56
5 121 56 40 30 72 57 72 60 0 6 -72 3 -90 -3z"/>
<path d="M881 3201 c-12 -8 -8 -16 21 -45 33 -33 41 -36 92 -36 48 0 56 3 56
19 0 10 -9 30 -21 45 -18 23 -28 26 -77 26 -31 0 -63 -4 -71 -9z"/>
<path d="M52 3183 c-39 -19 -30 -37 29 -53 35 -10 43 -8 80 17 l42 27 -29 13
c-40 17 -83 16 -122 -4z"/>
<path d="M537 3164 c-27 -14 -47 -27 -45 -29 12 -12 197 -72 191 -62 -19 31
-88 117 -93 117 -3 -1 -27 -12 -53 -26z"/>
<path d="M2846 3169 c-47 -37 -35 -47 64 -51 50 -2 90 -1 90 2 -1 9 -99 70
-114 70 -7 0 -25 -9 -40 -21z"/>
<path d="M3340 3160 c-12 -17 -20 -33 -18 -35 2 -2 36 -9 75 -16 l71 -12 40
34 c48 40 45 43 -69 53 l-77 7 -22 -31z"/>
<path d="M4162 3159 c-18 -12 -32 -23 -30 -24 13 -12 148 -62 148 -56 0 5 -19
30 -42 55 l-43 46 -33 -21z"/>
<path d="M1442 3119 c-23 -17 -42 -34 -42 -38 0 -7 127 -4 198 5 49 6 47 16
-8 44 -56 29 -98 26 -148 -11z"/>
<path d="M2516 3107 c-14 -23 -24 -43 -22 -44 2 -2 38 13 81 32 43 20 76 37
74 39 -2 2 -28 6 -56 9 l-52 6 -25 -42z"/>
<path d="M14131 3043 c1 -38 -1 -79 -6 -93 l-8 -25 23 22 c18 17 24 36 28 92
4 68 4 71 -17 71 -21 0 -22 -4 -20 -67z"/>
<path d="M3835 3070 c27 -30 98 -53 140 -46 43 8 85 26 85 36 0 14 -89 30
-166 30 -76 0 -77 0 -59 -20z"/>
<path d="M845 3030 l-29 -30 80 0 79 1 -33 29 c-41 38 -61 38 -97 0z"/>
<path d="M3202 3015 l-47 -45 34 0 c18 0 60 12 93 27 l60 27 -22 18 c-36 29
-67 22 -118 -27z"/>
<path d="M3600 3047 c3 -2 29 -25 59 -49 52 -44 54 -44 97 -35 25 6 43 15 41
21 -7 22 -85 56 -143 62 -32 4 -57 4 -54 1z"/>
<path d="M72 3028 c-26 -26 -14 -36 28 -26 33 9 38 13 29 24 -14 17 -41 18
-57 2z"/>
<path d="M2775 3033 c-46 -10 -85 -25 -85 -32 0 -14 188 -44 237 -37 44 6 125
45 138 66 6 10 -248 13 -290 3z"/>
<path d="M247 2991 c-24 -41 -22 -43 21 -24 50 23 50 23 28 39 -27 19 -29 18
-49 -15z"/>
<path d="M490 3004 c-33 -15 -34 -16 -16 -30 23 -16 166 -20 166 -4 0 15 -45
40 -81 46 -19 2 -49 -3 -69 -12z"/>
<path d="M3453 2994 c-19 -18 -22 -24 -10 -20 10 3 37 6 60 6 l42 0 -25 20
c-32 25 -34 25 -67 -6z"/>
<path d="M1151 2984 c26 -26 109 -47 109 -27 0 25 -48 53 -90 53 l-45 0 26
-26z"/>
<path d="M4120 2980 c-41 -17 -43 -18 -20 -23 14 -3 52 -9 85 -12 l60 -6 -35
30 c-19 17 -37 30 -40 30 -3 0 -25 -8 -50 -19z"/>
<path d="M1490 2981 c-22 -6 -23 -8 -7 -14 42 -16 177 -5 177 14 0 10 -133 10
-170 0z"/>
<path d="M2461 2941 l-34 -18 88 -11 c49 -7 90 -10 92 -8 6 6 -84 56 -99 56
-7 -1 -28 -9 -47 -19z"/>
<path d="M10067 2668 c10 -18 35 -41 56 -51 31 -16 42 -17 72 -7 53 17 101 90
60 90 -8 0 -15 -6 -15 -14 0 -19 -47 -56 -71 -56 -31 0 -66 21 -78 46 -6 13
-18 24 -27 24 -14 0 -14 -4 3 -32z"/>
<path d="M13432 2488 c2 -158 6 -212 16 -216 9 -3 12 44 12 212 0 187 -2 216
-15 216 -13 0 -15 -28 -13 -212z"/>
<path d="M5700 2532 c-19 -9 -45 -32 -57 -51 l-23 -34 0 47 c0 34 -4 46 -15
46 -13 0 -15 -38 -15 -280 0 -242 2 -280 15 -280 12 0 15 20 15 118 l0 117 20
-30 c67 -101 236 -82 290 32 41 87 26 217 -33 282 -47 51 -133 66 -197 33z
m148 -32 c96 -59 95 -264 0 -334 -38 -27 -118 -27 -156 1 -50 37 -67 80 -67
168 0 92 18 135 68 165 42 26 112 26 155 0z"/>
<path d="M6125 2534 c-77 -40 -109 -100 -110 -204 0 -139 70 -214 192 -207 84
4 142 48 159 120 10 44 -18 33 -41 -15 -28 -58 -63 -82 -125 -82 -79 0 -138
55 -147 138 l-6 46 167 0 166 0 -6 43 c-3 23 -16 62 -28 87 -37 77 -146 113
-221 74z m161 -45 c33 -31 54 -71 54 -104 l0 -25 -145 0 c-139 0 -145 1 -145
20 0 35 39 100 73 121 45 28 127 22 163 -12z"/>
<path d="M8040 2539 c-78 -31 -128 -134 -116 -236 13 -115 84 -183 189 -183
121 1 196 96 184 236 -6 85 -39 142 -97 172 -47 23 -116 28 -160 11z m148 -39
c43 -26 70 -73 77 -135 9 -68 -8 -128 -49 -173 -29 -32 -40 -36 -92 -40 -50
-3 -64 0 -93 20 -50 34 -73 85 -72 162 1 117 57 186 151 186 27 0 58 -8 78
-20z"/>
<path d="M8780 2528 c-136 -70 -134 -326 4 -389 118 -54 240 8 266 136 40 193
-110 334 -270 253z m168 -28 c97 -59 97 -270 -1 -331 -25 -16 -45 -19 -90 -16
-49 3 -62 8 -91 36 -83 80 -70 245 24 308 43 30 112 31 158 3z"/>
<path d="M9244 2536 c-17 -8 -43 -29 -57 -47 l-27 -34 0 43 c0 31 -4 42 -15
42 -13 0 -15 -38 -15 -280 0 -242 2 -280 15 -280 12 0 15 13 15 58 0 31 3 80
6 108 l6 51 33 -35 c30 -33 38 -36 96 -40 80 -4 123 17 162 80 73 117 27 295
-86 337 -38 15 -95 13 -133 -3z m146 -38 c50 -34 70 -81 70 -161 0 -80 -16
-123 -59 -160 -47 -39 -91 -44 -148 -16 -64 33 -88 80 -88 174 1 81 28 145 73
169 42 23 113 20 152 -6z"/>
<path d="M9665 2536 c-63 -28 -115 -118 -115 -200 0 -89 54 -179 123 -205 70
-27 176 1 214 55 77 111 48 289 -57 342 -50 25 -119 28 -165 8z m181 -58 c34
-37 54 -91 54 -143 0 -52 -20 -106 -54 -143 -29 -32 -40 -36 -92 -40 -50 -3
-64 0 -93 20 -51 35 -71 81 -71 161 0 128 56 191 164 184 53 -3 62 -7 92 -39z"/>
<path d="M11170 2532 c-19 -9 -45 -32 -57 -51 l-23 -34 0 47 c0 34 -4 46 -15
46 -13 0 -15 -38 -15 -280 0 -242 2 -280 15 -280 12 0 15 20 15 118 l0 117 20
-32 c61 -101 237 -80 291 36 39 84 23 217 -34 280 -47 51 -133 66 -197 33z
m147 -32 c45 -27 66 -73 70 -155 4 -59 1 -77 -19 -114 -32 -62 -66 -85 -128
-85 -58 0 -94 22 -125 75 -27 46 -28 178 -2 227 25 45 72 72 127 72 27 0 58
-8 77 -20z"/>
<path d="M13042 2529 c-58 -29 -93 -89 -99 -173 -12 -150 73 -247 207 -234 93
9 154 75 166 180 21 179 -125 300 -274 227z m165 -29 c48 -29 73 -86 73 -167
0 -80 -20 -126 -71 -161 -29 -20 -43 -23 -93 -20 -52 4 -63 8 -92 40 -80 88
-67 243 26 305 42 29 112 31 157 3z"/>
<path d="M5180 2335 l0 -205 103 0 c115 0 160 10 193 41 48 45 39 136 -16 161
l-27 12 33 32 c38 35 44 75 18 113 -28 39 -73 51 -194 51 l-110 0 0 -205z
m245 161 c66 -28 53 -105 -22 -125 -21 -6 -71 -11 -110 -11 l-73 0 0 75 0 75
85 0 c52 0 99 -6 120 -14z m12 -186 c41 -25 50 -59 27 -99 -23 -40 -59 -51
-160 -51 l-84 0 0 85 0 85 93 0 c74 0 98 -4 124 -20z"/>
<path d="M6440 2335 c0 -198 1 -205 20 -205 19 0 20 8 22 183 l3 182 75 -183
c62 -150 78 -182 93 -180 14 2 39 51 95 188 l77 185 3 -187 c2 -158 5 -188 17
-188 13 0 15 31 15 206 l0 205 -27 -3 c-24 -3 -33 -18 -101 -181 -41 -98 -78
-174 -82 -170 -4 4 -40 86 -80 181 -70 166 -74 172 -101 172 l-29 0 0 -205z"/>
<path d="M7030 2533 c-60 -19 -90 -57 -90 -110 0 -40 32 -87 69 -102 l31 -13
-38 -47 c-21 -25 -53 -65 -71 -88 -32 -42 -32 -43 -9 -43 17 1 39 23 87 85
l64 85 73 0 74 0 0 -85 c0 -78 2 -85 20 -85 19 0 20 7 20 205 l0 205 -107 -1
c-60 0 -115 -3 -123 -6z m190 -113 l0 -90 -81 0 c-100 0 -143 18 -159 64 -25
78 25 115 158 116 l82 0 0 -90z"/>
<path d="M7570 2335 c0 -176 2 -205 15 -205 12 0 15 14 15 67 0 66 0 66 47
109 l46 43 86 -109 c64 -81 92 -109 109 -110 21 0 17 7 -35 73 -31 39 -75 94
-97 120 l-40 48 90 84 c67 63 84 84 68 85 -12 0 -65 -42 -140 -112 l-119 -112
-2 60 c-5 113 -14 164 -29 164 -12 0 -14 -34 -14 -205z"/>
<path d="M8320 2525 c0 -12 15 -15 75 -15 l75 0 0 -190 c0 -183 1 -190 20
-190 19 0 20 7 20 190 l0 190 75 0 c60 0 75 3 75 15 0 13 -26 15 -170 15 -144
0 -170 -2 -170 -15z"/>
<path d="M10000 2334 l0 -205 23 3 c16 2 54 50 142 178 l120 175 3 -177 c2
-170 3 -178 22 -178 19 0 20 7 20 205 l0 205 -22 0 c-18 0 -45 -33 -127 -154
-57 -85 -114 -167 -127 -182 l-23 -29 -1 183 c0 155 -2 182 -15 182 -13 0 -15
-30 -15 -206z"/>
<path d="M10640 2335 c0 -176 2 -205 15 -205 13 0 15 28 15 190 l0 190 130 0
130 0 0 -190 c0 -183 1 -190 20 -190 19 0 20 7 20 205 l0 205 -165 0 -165 0 0
-205z"/>
<path d="M11500 2335 c0 -267 -3 -266 162 -26 l123 179 3 -179 c2 -171 3 -179
22 -179 19 0 20 7 20 205 l0 205 -23 0 c-19 0 -47 -34 -148 -182 l-124 -183
-3 183 c-2 153 -5 182 -17 182 -13 0 -15 -31 -15 -205z"/>
<path d="M11910 2335 l0 -205 265 0 265 0 0 205 c0 198 -1 205 -20 205 -19 0
-20 -7 -20 -190 l0 -190 -105 0 -105 0 0 190 c0 162 -2 190 -15 190 -13 0 -15
-28 -15 -190 l0 -190 -105 0 -105 0 0 190 c0 183 -1 190 -20 190 -19 0 -20 -7
-20 -205z"/>
<path d="M12616 2509 c-3 -17 -6 -76 -6 -130 0 -167 -26 -238 -85 -227 -16 4
-25 1 -25 -8 0 -19 38 -27 70 -14 48 20 62 67 71 230 4 80 8 146 8 148 1 1 44
2 96 2 l95 0 0 -190 c0 -162 2 -190 15 -190 13 0 15 29 15 205 l0 205 -124 0
-123 0 -7 -31z"/>
<path d="M13430 2170 c0 -33 3 -40 20 -40 17 0 20 7 20 40 0 33 -3 40 -20 40
-17 0 -20 -7 -20 -40z"/>
<path d="M671 789 c-106 -42 -184 -152 -199 -283 -28 -226 88 -399 281 -422
107 -13 221 33 266 107 18 30 18 30 25 7 3 -13 6 -40 6 -60 0 -34 3 -38 25
-38 l25 0 0 175 0 175 -150 0 -150 0 0 -25 0 -25 121 0 122 0 -6 -49 c-15
-128 -107 -211 -234 -211 -82 0 -124 14 -175 60 -69 60 -92 122 -92 245 0 120
22 182 88 243 53 48 103 66 182 65 96 -1 174 -52 209 -135 13 -32 20 -38 45
-38 28 0 30 2 24 28 -19 76 -66 133 -144 173 -66 33 -195 37 -269 8z"/>
<path d="M3230 750 c0 -49 1 -50 30 -50 29 0 30 1 30 50 0 49 -1 50 -30 50
-29 0 -30 -1 -30 -50z"/>
<path d="M1356 608 c-59 -16 -130 -90 -150 -157 -63 -214 61 -393 254 -366 78
11 131 54 165 138 l15 37 -29 0 c-25 0 -33 -7 -51 -45 -46 -96 -172 -114 -253
-37 -29 28 -63 122 -53 148 4 11 39 14 196 14 l190 0 0 40 c0 57 -35 141 -74
179 -32 31 -109 62 -150 60 -12 -1 -39 -6 -60 -11z m150 -69 c33 -20 60 -65
70 -118 l7 -31 -167 0 -166 0 6 28 c30 128 147 185 250 121z"/>
<path d="M1915 611 c-45 -11 -70 -27 -99 -62 l-26 -31 0 41 c0 39 -2 41 -30
41 l-30 0 0 -250 0 -250 29 0 30 0 3 173 c3 195 15 235 78 269 44 23 127 24
159 2 43 -31 51 -70 51 -264 l0 -180 31 0 30 0 -3 209 c-3 195 -4 212 -24 238
-40 54 -128 82 -199 64z"/>
<path d="M2396 606 c-80 -30 -125 -82 -153 -175 -20 -69 -12 -161 18 -225 84
-179 356 -162 409 25 8 27 7 29 -19 29 -23 0 -31 -7 -46 -41 -24 -52 -65 -81
-124 -87 -59 -5 -111 16 -144 60 -26 34 -52 121 -42 139 4 5 89 9 197 9 l191
0 -6 58 c-7 87 -53 164 -118 197 -42 22 -119 27 -163 11z m145 -62 c33 -17 68
-72 76 -119 l6 -35 -166 0 -166 0 13 44 c11 35 50 105 59 106 1 0 20 7 42 15
43 16 92 12 136 -11z"/>
<path d="M3517 610 c-78 -20 -117 -66 -117 -139 0 -28 8 -48 26 -70 25 -30 58
-43 206 -81 96 -25 127 -93 70 -150 -72 -71 -226 -41 -253 50 -10 34 -16 40
-40 40 -27 0 -28 -2 -22 -32 17 -94 85 -142 203 -142 62 0 83 4 119 24 83 47
106 141 50 205 -31 35 -78 55 -205 84 -62 15 -94 42 -94 79 0 62 66 99 152 86
48 -8 98 -50 98 -83 0 -17 6 -21 30 -21 25 0 30 4 30 24 0 34 -40 89 -80 108
-44 22 -124 30 -173 18z"/>
<path d="M2750 575 l0 -24 151 -3 151 -3 -161 -197 c-114 -140 -161 -204 -161
-223 l0 -25 210 0 210 0 0 25 0 25 -170 0 c-93 0 -170 2 -170 5 0 3 74 96 165
207 91 111 165 210 165 220 0 17 -14 18 -195 18 l-195 0 0 -25z"/>
<path d="M3230 350 l0 -250 30 0 30 0 0 250 0 250 -30 0 -30 0 0 -250z"/>
</g>
</svg>
