<?xml version="1.0" standalone="no"?>
<!DOCTYPE svg PUBLIC "-//W3C//DTD SVG 20010904//EN"
 "http://www.w3.org/TR/2001/REC-SVG-20010904/DTD/svg10.dtd">
<svg version="1.0" xmlns="http://www.w3.org/2000/svg"
 width="1000.000000pt" height="1000.000000pt" viewBox="0 0 1000.000000 1000.000000"
 preserveAspectRatio="xMidYMid meet">
<metadata>
Created by potrace 1.11, written by Peter Selinger 2001-2013
</metadata>
<g transform="translate(0.000000,1000.000000) scale(0.100000,-0.100000)"
fill="#000000" stroke="none">
<path d="M5875 6195 c-137 -35 -246 -111 -329 -230 -49 -69 -67 -106 -93 -190
-17 -56 -18 -117 -18 -1030 l0 -970 273 0 273 0 -1 883 c0 669 2 882 11 876
27 -16 154 -158 151 -168 -2 -6 -1 -8 3 -5 3 4 27 -16 53 -45 48 -53 120 -131
232 -251 73 -79 209 -228 238 -262 22 -26 236 -255 357 -383 45 -47 148 -159
231 -249 82 -90 163 -178 179 -196 42 -45 172 -146 237 -183 29 -16 86 -38
127 -48 63 -15 85 -16 159 -6 188 25 319 126 406 313 64 135 60 80 64 1137 l2
962 -275 0 -275 0 0 -882 0 -883 -48 50 c-26 28 -83 90 -127 139 -89 99 -172
191 -195 216 -126 136 -273 296 -390 425 -79 88 -147 162 -150 165 -3 3 -48
52 -100 110 -52 58 -96 107 -99 110 -4 3 -51 55 -106 115 -289 319 -355 380
-464 435 -110 55 -225 71 -326 45z"/>
<path d="M2182 6119 c-103 -22 -229 -76 -320 -137 -141 -97 -256 -272 -289
-443 -28 -149 -7 -326 55 -456 76 -161 195 -281 352 -356 160 -76 72 -71 1258
-74 l1062 -4 0 -133 c0 -111 -3 -135 -15 -140 -9 -3 -593 -6 -1298 -6 l-1282
0 -3 -300 -2 -300 1277 2 c1432 4 1313 -3 1478 78 191 93 331 271 386 490 43
171 7 410 -86 565 -103 170 -241 277 -437 337 l-73 22 -1048 4 -1048 3 3 137
3 137 1278 5 1277 5 3 293 2 292 -1220 -1 c-1169 0 -1224 -1 -1313 -20z"/>
</g>
</svg>
